<svg width="161" height="389" viewBox="0 0 161 389" fill="none" xmlns="http://www.w3.org/2000/svg">
<g opacity="0.3">
<path d="M5.0957 0.733154C2.79356 0.733154 0.924561 2.60213 0.924561 4.90428C0.924561 7.20643 2.79356 9.07542 5.0957 9.07542C7.39785 9.07542 9.26685 7.20643 9.26685 4.90428C9.26685 2.60213 7.39785 0.733154 5.0957 0.733154Z" fill="white"/>
<path d="M80.9622 0.733154C78.6601 0.733154 76.7911 2.60213 76.7911 4.90428C76.7911 7.20643 78.6601 9.07542 80.9622 9.07542C83.2644 9.07542 85.1334 7.20643 85.1334 4.90428C85.1334 2.60213 83.2644 0.733154 80.9622 0.733154Z" fill="white"/>
<path d="M156.829 0.733154C154.527 0.733154 152.658 2.60213 152.658 4.90428C152.658 7.20643 154.527 9.07542 156.829 9.07542C159.131 9.07542 161 7.20643 161 4.90428C161 2.60213 159.131 0.733154 156.829 0.733154Z" fill="white"/>
<path d="M5.0957 76.5997C2.79356 76.5997 0.924561 78.4687 0.924561 80.7709C0.924561 83.073 2.79356 84.942 5.0957 84.942C7.39785 84.942 9.26685 83.073 9.26685 80.7709C9.26685 78.4687 7.39785 76.5997 5.0957 76.5997Z" fill="white"/>
<path d="M80.9622 76.5997C78.6601 76.5997 76.7911 78.4687 76.7911 80.7709C76.7911 83.073 78.6601 84.942 80.9622 84.942C83.2644 84.942 85.1334 83.073 85.1334 80.7709C85.1334 78.4687 83.2644 76.5997 80.9622 76.5997Z" fill="white"/>
<path d="M5.0957 152.466C2.79356 152.466 0.924561 154.335 0.924561 156.637C0.924561 158.94 2.79356 160.809 5.0957 160.809C7.39785 160.809 9.26685 158.94 9.26685 156.637C9.26685 154.335 7.39785 152.466 5.0957 152.466Z" fill="white"/>
<path d="M80.9622 152.466C78.6601 152.466 76.7911 154.335 76.7911 156.637C76.7911 158.94 78.6601 160.809 80.9622 160.809C83.2644 160.809 85.1334 158.94 85.1334 156.637C85.1334 154.335 83.2644 152.466 80.9622 152.466Z" fill="white"/>
<path d="M5.0957 228.333C2.79356 228.333 0.924561 230.202 0.924561 232.504C0.924561 234.806 2.79356 236.675 5.0957 236.675C7.39785 236.675 9.26685 234.806 9.26685 232.504C9.26685 230.202 7.39785 228.333 5.0957 228.333Z" fill="white"/>
<path d="M80.9622 228.333C78.6601 228.333 76.7911 230.202 76.7911 232.504C76.7911 234.806 78.6601 236.675 80.9622 236.675C83.2644 236.675 85.1334 234.806 85.1334 232.504C85.1334 230.202 83.2644 228.333 80.9622 228.333Z" fill="white"/>
<path d="M156.829 76.5997C154.527 76.5997 152.658 78.4687 152.658 80.7709C152.658 83.073 154.527 84.942 156.829 84.942C159.131 84.942 161 83.073 161 80.7709C161 78.4687 159.131 76.5997 156.829 76.5997Z" fill="white"/>
<path d="M156.829 152.466C154.527 152.466 152.658 154.335 152.658 156.637C152.658 158.94 154.527 160.809 156.829 160.809C159.131 160.809 161 158.94 161 156.637C161 154.335 159.131 152.466 156.829 152.466Z" fill="white"/>
<path d="M156.829 228.333C154.527 228.333 152.658 230.202 152.658 232.504C152.658 234.806 154.527 236.675 156.829 236.675C159.131 236.675 161 234.806 161 232.504C161 230.202 159.131 228.333 156.829 228.333Z" fill="white"/>
<path d="M5.0957 304.191C2.79356 304.191 0.924561 306.06 0.924561 308.363C0.924561 310.665 2.79356 312.534 5.0957 312.534C7.39785 312.534 9.26685 310.665 9.26685 308.363C9.26685 306.06 7.39785 304.191 5.0957 304.191Z" fill="white"/>
<path d="M80.9622 304.191C78.6601 304.191 76.7911 306.06 76.7911 308.363C76.7911 310.665 78.6601 312.534 80.9622 312.534C83.2644 312.534 85.1334 310.665 85.1334 308.363C85.1334 306.06 83.2644 304.191 80.9622 304.191Z" fill="white"/>
<path d="M5.0957 380.058C2.79356 380.058 0.924561 381.927 0.924561 384.229C0.924561 386.531 2.79356 388.4 5.0957 388.4C7.39785 388.4 9.26685 386.531 9.26685 384.229C9.26685 381.927 7.39785 380.058 5.0957 380.058Z" fill="white"/>
<path d="M80.9622 380.058C78.6601 380.058 76.7911 381.927 76.7911 384.229C76.7911 386.531 78.6601 388.4 80.9622 388.4C83.2644 388.4 85.1334 386.531 85.1334 384.229C85.1334 381.927 83.2644 380.058 80.9622 380.058Z" fill="white"/>
<path d="M156.829 304.191C154.527 304.191 152.658 306.06 152.658 308.363C152.658 310.665 154.527 312.534 156.829 312.534C159.131 312.534 161 310.665 161 308.363C161 306.06 159.131 304.191 156.829 304.191Z" fill="white"/>
<path d="M156.829 380.058C154.527 380.058 152.658 381.927 152.658 384.229C152.658 386.531 154.527 388.4 156.829 388.4C159.131 388.4 161 386.531 161 384.229C161 381.927 159.131 380.058 156.829 380.058Z" fill="white"/>
</g>
</svg>
