<svg width="236" height="236" viewBox="0 0 236 236" fill="none" xmlns="http://www.w3.org/2000/svg">
<g opacity="0.3">
<path d="M4.17114 0C1.86899 0 0 1.86899 0 4.17114C0 6.47328 1.86899 8.34227 4.17114 8.34227C6.47328 8.34227 8.34227 6.47328 8.34227 4.17114C8.34227 1.86899 6.47328 0 4.17114 0Z" fill="white"/>
<path d="M4.17114 75.8666C1.86899 75.8666 0 77.7356 0 80.0377C0 82.3399 1.86899 84.2089 4.17114 84.2089C6.47328 84.2089 8.34227 82.3399 8.34227 80.0377C8.34227 77.7356 6.47328 75.8666 4.17114 75.8666Z" fill="white"/>
<path d="M4.17114 151.733C1.86899 151.733 0 153.602 0 155.904C0 158.206 1.86899 160.075 4.17114 160.075C6.47328 160.075 8.34227 158.206 8.34227 155.904C8.34227 153.602 6.47328 151.733 4.17114 151.733Z" fill="white"/>
<path d="M80.0377 8.34227C82.3414 8.34227 84.2089 6.47479 84.2089 4.17114C84.2089 1.86748 82.3414 0 80.0377 0C77.7341 0 75.8666 1.86748 75.8666 4.17114C75.8666 6.47479 77.7341 8.34227 80.0377 8.34227Z" fill="white"/>
<path d="M80.0377 75.8666C77.7356 75.8666 75.8666 77.7356 75.8666 80.0377C75.8666 82.3399 77.7356 84.2089 80.0377 84.2089C82.3399 84.2089 84.2089 82.3399 84.2089 80.0377C84.2089 77.7356 82.3399 75.8666 80.0377 75.8666Z" fill="white"/>
<path d="M80.0377 151.733C77.7356 151.733 75.8666 153.602 75.8666 155.904C75.8666 158.206 77.7356 160.075 80.0377 160.075C82.3399 160.075 84.2089 158.206 84.2089 155.904C84.2089 153.602 82.3399 151.733 80.0377 151.733Z" fill="white"/>
<path d="M155.904 8.34227C158.208 8.34227 160.075 6.47479 160.075 4.17114C160.075 1.86748 158.208 0 155.904 0C153.601 0 151.733 1.86748 151.733 4.17114C151.733 6.47479 153.601 8.34227 155.904 8.34227Z" fill="white"/>
<path d="M231.771 8.34227C234.075 8.34227 235.942 6.47479 235.942 4.17114C235.942 1.86748 234.075 0 231.771 0C229.467 0 227.6 1.86748 227.6 4.17114C227.6 6.47479 229.467 8.34227 231.771 8.34227Z" fill="white"/>
<path d="M155.904 75.8666C153.602 75.8666 151.733 77.7356 151.733 80.0377C151.733 82.3399 153.602 84.2089 155.904 84.2089C158.206 84.2089 160.075 82.3399 160.075 80.0377C160.075 77.7356 158.206 75.8666 155.904 75.8666Z" fill="white"/>
<path d="M231.771 75.8666C229.469 75.8666 227.6 77.7356 227.6 80.0377C227.6 82.3399 229.469 84.2089 231.771 84.2089C234.073 84.2089 235.942 82.3399 235.942 80.0377C235.942 77.7356 234.073 75.8666 231.771 75.8666Z" fill="white"/>
<path d="M155.904 151.733C153.602 151.733 151.733 153.602 151.733 155.904C151.733 158.206 153.602 160.075 155.904 160.075C158.206 160.075 160.075 158.206 160.075 155.904C160.075 153.602 158.206 151.733 155.904 151.733Z" fill="white"/>
<path d="M231.771 151.733C229.469 151.733 227.6 153.602 227.6 155.904C227.6 158.206 229.469 160.075 231.771 160.075C234.073 160.075 235.942 158.206 235.942 155.904C235.942 153.602 234.073 151.733 231.771 151.733Z" fill="white"/>
<path d="M4.17114 227.6C1.86899 227.6 0 229.469 0 231.771C0 234.073 1.86899 235.942 4.17114 235.942C6.47328 235.942 8.34227 234.073 8.34227 231.771C8.34227 229.469 6.47328 227.6 4.17114 227.6Z" fill="white"/>
<path d="M80.0377 227.6C77.7356 227.6 75.8666 229.469 75.8666 231.771C75.8666 234.073 77.7356 235.942 80.0377 235.942C82.3399 235.942 84.2089 234.073 84.2089 231.771C84.2089 229.469 82.3399 227.6 80.0377 227.6Z" fill="white"/>
<path d="M155.904 227.6C153.602 227.6 151.733 229.469 151.733 231.771C151.733 234.073 153.602 235.942 155.904 235.942C158.206 235.942 160.075 234.073 160.075 231.771C160.075 229.469 158.206 227.6 155.904 227.6Z" fill="white"/>
<path d="M231.771 227.6C229.469 227.6 227.6 229.469 227.6 231.771C227.6 234.073 229.469 235.942 231.771 235.942C234.073 235.942 235.942 234.073 235.942 231.771C235.942 229.469 234.073 227.6 231.771 227.6Z" fill="white"/>
</g>
</svg>
